<?xml version="1.0" encoding="utf-8"?>
<!-- Generator: Adobe Illustrator 18.1.1, SVG Export Plug-In . SVG Version: 6.00 Build 0)  -->
<svg version="1.1" id="Layer_1" xmlns="http://www.w3.org/2000/svg" xmlns:xlink="http://www.w3.org/1999/xlink" x="0px" y="0px"
	 viewBox="0 0 420.3 77" enable-background="new 0 0 420.3 77" xml:space="preserve">
<radialGradient id="SVGID_1_" cx="233.8625" cy="57.0396" r="170.2134" gradientTransform="matrix(0.8985 0 0 0.675 0 0)" gradientUnits="userSpaceOnUse">
	<stop  offset="0.7388" style="stop-color:#000000"/>
	<stop  offset="0.8873" style="stop-color:#000000"/>
	<stop  offset="1" style="stop-color:#000000"/>
</radialGradient>
<rect x="0" y="0" fill="url(#SVGID_1_)" width="420.3" height="77"/>
<path fill="#ED1C24" d="M80.2,44V32.7h0.9c4.2,0,6.3,1.6,6.3,5.7c0,4-2,5.6-6.3,5.6H80.2z M74.7,48.6H79c0.5,0,1,0,1.4,0
	c3.4,0,6.2-0.1,8.8-1.9c2.6-1.8,4-4.7,4-8.3c0-3.7-1.4-6.5-4-8.3c-2.7-1.9-5.8-1.9-9.6-1.9c-0.2,0-0.4,0-0.7,0h-4.3V48.6z"/>
<path fill="#ED1C24" d="M105.6,44.4c-3.3,0-5.4-2.6-5.4-6c0-3.3,2.2-6,5.4-6c3.1,0,5.4,2.7,5.4,6C110.9,41.7,108.7,44.4,105.6,44.4z
	 M116.5,38.4c0-2.9-1.1-5.6-3.2-7.6c-2.1-2-4.9-3.1-7.8-3.1c-2.9,0-5.7,1.1-7.7,3.1c-2.1,2-3.2,4.7-3.2,7.6c0,3.3,1.4,6.2,4,8.3
	c2,1.6,4.5,2.5,7,2.5c2.9,0,5.7-1.1,7.8-3.1C115.4,44,116.5,41.3,116.5,38.4z"/>
<path fill="#ED1C24" d="M134.3,35c-1.5-1.7-2.9-2.5-4.7-2.5c-3.2,0-5.4,2.5-5.4,5.9c0,3.1,2.1,5.7,5.4,5.7c1.8,0,3.2-0.8,4.7-2.5
	v6.1c-1.8,0.9-3.5,1.3-5.3,1.3c-6,0-10.4-4.6-10.4-10.7c0-6.2,4.4-10.7,10.4-10.7c1.8,0,3.5,0.4,5.3,1.3V35z"/>
<path fill="#ED1C24" d="M140.3,32.9h-4.6v-4.8h14.7v4.8h-4.6v15.6h-5.6V32.9z"/>
<path fill="#ED1C24" d="M161,44.4c-3.3,0-5.4-2.6-5.4-6c0-3.3,2.2-6,5.4-6c3.1,0,5.4,2.7,5.4,6C166.4,41.7,164.2,44.4,161,44.4z
	 M172,38.4c0-2.9-1.1-5.6-3.2-7.6c-2.1-2-4.9-3.1-7.8-3.1c-2.9,0-5.7,1.1-7.7,3.1c-2.1,2-3.2,4.7-3.2,7.6c0,3.3,1.4,6.2,4,8.3
	c2,1.6,4.5,2.5,7,2.5c2.9,0,5.7-1.1,7.8-3.1C170.9,44,172,41.3,172,38.4z"/>
<path fill="#ED1C24" d="M179,37.8v-5.4h1.1c2.3,0,3.4,0.7,3.4,2.8c0,1.8-1.1,2.5-3.5,2.5H179z M173.8,48.6h5.2v-8l4.7,8h6.3
	l-5.6-8.2c3-0.6,4.6-2.7,4.6-5.8c0-2.1-0.8-3.9-2.3-5c-1.7-1.3-3.9-1.4-6.8-1.4c-0.1,0-0.2,0-0.3,0h-5.8V48.6z"/>
<path fill="#ED1C24" d="M197.9,44.8c1.5,0,2.5-0.9,2.5-2.1c0-1.6-1.1-2.1-3.4-2.7c-3.7-1-5.5-2.5-5.5-5.7c0-3.8,2.8-6.6,7.1-6.6
	c2.3,0,4.3,0.6,6.1,1.8l-1.7,4c-1.3-1.1-2.7-1.6-3.9-1.6c-1.4,0-2.3,0.7-2.3,1.7c0,1.5,1.4,1.8,3.3,2.3c3.6,1,5.6,2.3,5.6,6.1
	c0,4.3-3,7.2-7.8,7.2c-2.9,0-5.1-0.9-7.3-3L193,42C194.7,43.8,196.3,44.8,197.9,44.8z"/>
<path fill="#ED1C24" d="M205.1,35.9l3.5-7.1h3.1l-2.4,7.1H205.1z"/>
<path fill="#FFFFFF" d="M229.4,48.6l-1.5-8.5c-0.3-1.7-0.4-3.2-0.6-4.6h-0.1c-0.1,1.4-0.2,2.9-0.4,4.6l-1.2,8.5h-5.5l-4.7-20.9h5.6
	l1.2,8.4c0.2,1.6,0.4,3.1,0.6,4.6h0.1c0.2-1.6,0.2-3.1,0.5-4.6l1.5-8.4h4.9l1.4,8.4c0.2,1.5,0.4,3,0.6,4.5h0.1
	c0.2-1.3,0.2-2.9,0.5-4.5l1.2-8.4h5.5l-4.2,20.9H229.4z"/>
<path fill="#FFFFFF" d="M240.2,27.7h10.5v4.9h-4.9v2.9h4.4v4.9h-4.4v3.2h4.9v4.9h-10.5V27.7z"/>
<path fill="#FFFFFF" d="M253.5,48.6V27.7h5.7v20.9H253.5z"/>
<path fill="#FFFFFF" d="M276.9,36.5l0,0.9c0,5.2-1,11.6-7.5,11.6c-6.2,0-8.2-5.4-8.2-10.7c0-5.2,2-10.9,8.1-10.9
	c3.4,0,5.9,2.1,7.1,5.2l-5.5,2c-0.1-0.8-0.6-2.1-1.6-2.1c-2.6,0-2.4,4.8-2.4,6.4c0.1,1.5,0,5.2,2.2,5.2c1.5,0,2-1.8,1.9-3h-2.1v-4.4
	H276.9z"/>
<path fill="#FFFFFF" d="M287.3,48.6v-8.5h-2.7v8.5h-5.7V27.7h5.7v7.5h2.7v-7.5h5.7v20.9H287.3z"/>
<path fill="#FFFFFF" d="M297.8,48.6V32.8h-3.1v-5.1h12v5.1h-3.2v15.8H297.8z"/>
<path fill="#FFFFFF" d="M311.6,27.7v18.5h4.7v2.4h-7.4V27.7H311.6z"/>
<path fill="#FFFFFF" d="M321.3,30.1c2.2,0,2.5,3.7,2.5,8.1c0,4.4-0.3,8.1-2.5,8.1c-2.2,0-2.5-3.7-2.5-8.1
	C318.9,33.7,319.2,30.1,321.3,30.1z M321.3,27.4c-5.4,0-5.4,7-5.4,10.7c0,3.8,0.1,10.7,5.4,10.7c5.4,0,5.4-7,5.4-10.7
	C326.8,34.4,326.7,27.4,321.3,27.4z"/>
<path fill="#FFFFFF" d="M335.2,30.9c-0.7-0.5-1.4-0.9-2.4-0.9c-1.5,0-2.5,1.2-2.5,2.7c0,0.9,0.2,1.6,0.8,2.3l2.1,2.3
	c1.9,1.9,3,3.3,3,6.1c0,2.9-1.8,5.5-4.9,5.5c-1.1,0-2.2-0.3-3-1v-2.8c0.8,0.6,1.7,1.1,2.7,1.1c1.7,0,2.4-1.4,2.4-2.9
	c0-4.2-5.9-5-5.9-10.5c0-2.9,1.6-5.4,4.7-5.4c1.1,0,2.1,0.2,2.9,0.7L335.2,30.9z"/>
<path fill="#FFFFFF" d="M343.8,30.9c-0.7-0.5-1.4-0.9-2.4-0.9c-1.5,0-2.5,1.2-2.5,2.7c0,0.9,0.2,1.6,0.8,2.3l2.1,2.3
	c1.9,1.9,3,3.3,3,6.1c0,2.9-1.8,5.5-4.9,5.5c-1.1,0-2.2-0.3-3.1-1v-2.8c0.8,0.6,1.7,1.1,2.7,1.1c1.7,0,2.4-1.4,2.4-2.9
	c0-4.2-5.9-5-5.9-10.5c0-2.9,1.6-5.4,4.7-5.4c1.1,0,2.1,0.2,2.9,0.7L343.8,30.9z"/>
<path fill="#FFFFFF" d="M359.2,30.6c-0.6-0.3-1.1-0.5-1.8-0.5c-3.9,0-3.9,5.7-3.9,8.3c0,2.8,0.2,8,4,8c0.6,0,1.1-0.1,1.7-0.4v2.4
	c-0.7,0.4-1.4,0.6-2.2,0.6c-5.7,0-6.4-6-6.4-10.4c0-4.2,0.5-11.1,6.2-11.1c0.9,0,1.6,0.1,2.4,0.6V30.6z"/>
<path fill="#FFFFFF" d="M368.8,27.7v2.4h-4.7v6.6h4.2v2.4h-4.2v7.1h4.7v2.4h-7.5V27.7H368.8z"/>
<path fill="#FFFFFF" d="M372.3,33.9l0.4,7v7.7h-2.8V27.7h2.7l4.9,15.9l0.1-0.1l-0.7-8.4v-7.5h2.8v20.9H377l-4.9-16.1l-0.1,0.1
	L372.3,33.9z"/>
<path fill="#FFFFFF" d="M390.4,27.7v2.4h-3.1v18.5h-2.8V30.1h-3.3v-2.4H390.4z"/>
<path fill="#FFFFFF" d="M399.4,27.7v2.4h-4.7v6.6h4.2v2.4h-4.2v7.1h4.7v2.4H392V27.7H399.4z"/>
<path fill="#FFFFFF" d="M404.4,37v-6.9h0.4c2.1-0.1,2.4,1.6,2.4,3.6C407.2,35.8,406.4,37.1,404.4,37z M401.6,48.6h2.8V38.4h0.1
	l3.8,10.2h2.9l-3.9-10.2c2.3-0.4,2.9-3.4,2.9-5.4c0-5.2-3.2-5.4-5.2-5.4h-3.3V48.6z"/>
<g>
	<path fill-rule="evenodd" clip-rule="evenodd" fill="#A7A9AC" d="M73.8,17.5c-4.4,8.6-7.5,15.8-9.4,22.6V27.8
		C67.3,26.8,70.4,21.8,73.8,17.5L73.8,17.5z M64.4,25.8c1-0.4,1.9-1.5,2.5-2.9c0.8-2.2,0.3-4.3-1-4.8c-0.4-0.2-0.9-0.1-1.4,0.1V25.8
		z M64.4,40.1c-2.1,7.2-2.9,14-2.8,21.8c-0.8-8.6-0.8-16.1-2.8-18.6c-3.2,6.9-13.3,11.9-19,13.8c26.3-15.6,22.6-35.7,3.8-31.4
		c8-2.5,13.7-2.3,17.6,1.2c1,0.9,2.1,1.1,3.1,0.8V40.1L64.4,40.1z M64.4,18.1c-1,0.4-1.9,1.5-2.5,2.9c-0.8,2.2-0.3,4.3,1,4.8
		c0.4,0.2,0.9,0.1,1.4-0.1V18.1z"/>
	<path fill-rule="evenodd" clip-rule="evenodd" fill="#ED1C24" d="M26.3,38.3c0.1,0,0.1-0.1,0.2-0.1c1.3,6.7,8.9,13.3,13.4,16.2
		C20.6,35,28,18.5,43.3,26.4c-6.4-3.9-11.2-5.1-15.4-2.9c-0.6,0.3-1.1,0.4-1.6,0.4V38.3L26.3,38.3z M26.3,22.1v-7.4
		c1.1,0.2,2.1,1.6,2.3,3.4c0.2,2-0.6,3.8-1.9,3.9C26.6,22.1,26.4,22.1,26.3,22.1z M19.1,12.5c4,17.4,4.5,28,1,41
		c2.5-7,4.1-13.3,6.1-15.2V23.9C23.2,23.7,21.5,17.7,19.1,12.5L19.1,12.5z M26.3,14.7v7.4c-1.1-0.2-2.1-1.6-2.3-3.4
		c-0.2-2,0.6-3.8,1.9-3.9C26,14.7,26.2,14.7,26.3,14.7z"/>
</g>
</svg>
